<svg width="401" height="100" viewBox="0 0 401 100" fill="none" xmlns="http://www.w3.org/2000/svg">
<path d="M105.188 54.4363L104.788 77.1563L108.148 77.4763C108.148 78.223 107.921 79.023 107.468 79.8763H98.2679L98.1479 78.4763C99.3745 78.0496 100.588 77.7296 101.788 77.5163C101.735 75.783 101.641 72.2096 101.508 66.7963C101.401 61.383 101.308 57.1963 101.228 54.2363C100.161 54.023 98.9612 53.703 97.6279 53.2763L97.7479 51.8763H107.748C108.201 52.7296 108.428 53.5296 108.428 54.2763C107.068 54.383 105.988 54.4363 105.188 54.4363ZM124.543 59.0763C127.103 59.0763 128.957 59.7163 130.103 60.9963C131.25 62.2496 131.823 64.1696 131.823 66.7563C131.823 67.503 131.717 70.9696 131.503 77.1563L134.863 77.4763C134.863 78.223 134.637 79.023 134.183 79.8763H124.983L124.863 78.4763C126.09 78.0496 127.29 77.7296 128.463 77.5163C128.303 70.5296 128.157 66.6496 128.023 65.8763C127.917 65.0763 127.73 64.383 127.463 63.7963C127.197 63.2096 126.797 62.7963 126.263 62.5563C125.73 62.3163 125.023 62.1963 124.143 62.1963C122.383 62.1963 120.677 62.623 119.023 63.4763C118.863 69.5563 118.757 74.1163 118.703 77.1563L122.063 77.4763C122.063 78.223 121.837 79.023 121.383 79.8763H112.183L112.063 78.4763C113.29 78.0496 114.49 77.7296 115.663 77.5163C115.503 70.743 115.37 65.7296 115.263 62.4763C113.797 62.3963 112.623 62.2363 111.743 61.9963L111.903 59.9163C113.343 59.5163 115.437 59.3163 118.183 59.3163C118.503 59.7963 118.743 60.4896 118.903 61.3963C120.05 60.783 121.197 60.2496 122.343 59.7963C123.517 59.3163 124.25 59.0763 124.543 59.0763ZM140.032 77.3163C140.965 77.7163 142.098 77.9163 143.432 77.9163C144.792 77.9163 145.858 77.663 146.632 77.1563C147.405 76.6496 147.792 75.9563 147.792 75.0763C147.792 74.1963 147.432 73.463 146.712 72.8763C145.992 72.2896 145.112 71.7696 144.072 71.3163C143.032 70.863 141.992 70.383 140.952 69.8763C139.912 69.3696 139.032 68.703 138.312 67.8763C137.592 67.0496 137.232 66.0896 137.232 64.9963C137.232 63.1563 137.845 61.7163 139.072 60.6763C140.298 59.6096 141.992 59.0763 144.152 59.0763C146.338 59.0763 148.392 59.5696 150.312 60.5563C150.338 60.823 150.352 61.543 150.352 62.7163C150.352 63.863 150.232 64.8496 149.992 65.6763C149.352 65.8896 148.592 65.9963 147.712 65.9963L146.392 61.9163C145.805 61.623 145.005 61.4763 143.992 61.4763C143.005 61.4763 142.218 61.743 141.632 62.2763C141.045 62.783 140.752 63.4363 140.752 64.2363C140.752 65.0096 141.112 65.6896 141.832 66.2763C142.578 66.863 143.472 67.3963 144.512 67.8763C145.552 68.3296 146.592 68.823 147.632 69.3563C148.672 69.863 149.552 70.543 150.272 71.3963C151.018 72.223 151.392 73.183 151.392 74.2763C151.392 76.1963 150.645 77.703 149.152 78.7963C147.685 79.863 145.872 80.3963 143.712 80.3963C142.538 80.3963 141.285 80.2096 139.952 79.8363C138.618 79.4363 137.498 78.9296 136.592 78.3163C136.592 76.5296 136.752 74.943 137.072 73.5563C137.685 73.4496 138.512 73.3963 139.552 73.3963L140.032 77.3163ZM161.998 55.7563C161.304 55.9163 160.624 55.9963 159.958 55.9963C159.318 55.9963 158.678 55.9563 158.038 55.8763C157.878 55.1296 157.798 54.383 157.798 53.6363C157.798 52.863 157.824 52.2896 157.878 51.9163C158.464 51.783 159.078 51.7163 159.718 51.7163C160.384 51.7163 161.091 51.743 161.838 51.7963C161.998 52.4896 162.078 53.1696 162.078 53.8363C162.078 54.4763 162.051 55.1163 161.998 55.7563ZM154.718 59.9563C156.984 59.5563 158.744 59.3563 159.998 59.3563C161.251 59.3563 162.051 59.383 162.398 59.4363C162.398 60.0763 162.318 60.783 162.158 61.5563C161.998 62.3296 161.904 62.703 161.878 62.6763L161.518 77.1563L164.878 77.4763C164.878 78.223 164.651 79.023 164.198 79.8763H154.998L154.878 78.4763C156.104 78.0496 157.304 77.7296 158.478 77.5163C158.318 70.8496 158.184 65.8496 158.078 62.5163C156.531 62.5163 155.358 62.3563 154.558 62.0363L154.718 59.9563ZM177.662 77.4363L181.222 77.3563C184.902 77.3563 186.742 78.8763 186.742 81.9163C186.742 83.3296 186.129 84.6363 184.902 85.8363C183.702 87.063 182.262 87.983 180.582 88.5963C178.902 89.2096 177.329 89.5163 175.862 89.5163C174.422 89.5163 173.076 89.303 171.822 88.8763C170.569 88.4763 169.502 87.8096 168.622 86.8763C167.742 85.943 167.302 84.863 167.302 83.6363C167.302 83.343 167.769 82.5696 168.702 81.3163C169.662 80.0896 170.289 79.3696 170.582 79.1563C170.342 78.9963 169.876 78.543 169.182 77.7963C168.489 77.023 168.102 76.4896 168.022 76.1963C168.689 74.9696 169.742 73.7696 171.182 72.5963C169.049 71.3163 167.982 69.2096 167.982 66.2763C167.982 63.9296 168.729 62.143 170.222 60.9163C171.716 59.6896 173.582 59.0763 175.822 59.0763C178.062 59.0763 179.796 59.4363 181.022 60.1563C183.156 59.7296 185.249 59.5163 187.302 59.5163C187.809 59.5163 188.062 59.823 188.062 60.4363C188.062 61.503 187.862 62.2363 187.462 62.6363L182.862 61.8763C183.822 63.103 184.302 64.5696 184.302 66.2763C184.302 68.943 183.516 70.863 181.942 72.0363C180.369 73.183 178.436 73.7563 176.142 73.7563C175.422 73.7563 174.569 73.663 173.582 73.4763C173.182 74.303 172.676 75.1963 172.062 76.1563C172.542 77.0096 174.409 77.4363 177.662 77.4363ZM182.742 84.7963C183.009 84.0496 183.142 83.2763 183.142 82.4763C183.142 81.703 182.836 81.0763 182.222 80.5963C181.609 80.1163 180.822 79.8763 179.862 79.8763C176.049 79.8763 173.716 79.8363 172.862 79.7563C172.142 80.903 171.636 81.863 171.342 82.6363C171.076 83.4363 170.942 83.8896 170.942 83.9963C170.942 85.0363 171.436 85.8096 172.422 86.3163C173.409 86.823 174.542 87.0763 175.822 87.0763C177.129 87.0763 178.436 86.863 179.742 86.4363C181.076 86.0096 182.076 85.463 182.742 84.7963ZM180.702 66.4363C180.702 63.1296 179.182 61.4763 176.142 61.4763C173.102 61.4763 171.582 63.0763 171.582 66.2763C171.582 67.903 171.982 69.1563 172.782 70.0363C173.582 70.9163 174.742 71.3563 176.262 71.3563C179.222 71.3563 180.702 69.7163 180.702 66.4363ZM195.827 50.1563C196.654 50.1563 197.241 50.183 197.587 50.2363C197.587 50.7163 197.507 51.343 197.347 52.1163C197.214 52.863 197.121 53.303 197.067 53.4363C197.067 54.023 197.041 55.2363 196.987 57.0763C196.934 58.9163 196.907 60.343 196.907 61.3563C198.054 60.743 199.187 60.2096 200.307 59.7563C201.454 59.303 202.174 59.0763 202.467 59.0763C205.027 59.0763 206.881 59.7163 208.027 60.9963C209.174 62.2496 209.747 64.1696 209.747 66.7563C209.747 67.503 209.641 70.9696 209.427 77.1563L212.787 77.4763C212.787 78.223 212.561 79.023 212.107 79.8763H202.907L202.787 78.4763C204.014 78.0496 205.214 77.7296 206.387 77.5163C206.227 70.5296 206.081 66.6496 205.947 65.8763C205.841 65.0763 205.654 64.383 205.387 63.7963C205.121 63.2096 204.721 62.7963 204.187 62.5563C203.654 62.3163 202.947 62.1963 202.067 62.1963C200.254 62.1963 198.521 62.623 196.867 63.4763L196.627 77.1563L199.987 77.4763C199.987 78.223 199.761 79.023 199.307 79.8763H190.107L189.987 78.4763C191.214 78.0496 192.414 77.7296 193.587 77.5163L193.107 53.3163C191.641 53.2363 190.467 53.0763 189.587 52.8363L189.747 50.7563C191.107 50.3563 193.134 50.1563 195.827 50.1563ZM217.875 77.3963L217.555 62.3163H214.475L214.355 60.9163C214.621 60.7296 215.395 60.383 216.675 59.8763L219.955 54.7563C220.488 54.8096 220.901 54.943 221.195 55.1563L221.155 59.5563C223.155 59.5563 224.795 59.6896 226.075 59.9563C226.075 60.6763 225.848 61.463 225.395 62.3163H221.075C221.021 65.5163 220.968 70.3696 220.915 76.8763C222.408 76.9563 223.901 77.223 225.395 77.6763L225.355 79.0763C224.981 79.3163 224.021 79.5963 222.475 79.9163C220.955 80.2363 219.701 80.3963 218.715 80.3963C218.581 80.183 218.408 79.7296 218.195 79.0363C217.981 78.3163 217.875 77.7696 217.875 77.3963ZM238.581 68.5963C238.634 69.023 238.661 69.383 238.661 69.6763L238.581 71.0763C237.194 71.2096 235.888 71.2763 234.661 71.2763L229.301 71.0763C229.248 70.8896 229.221 70.543 229.221 70.0363L229.301 68.5963C230.688 68.463 231.994 68.3963 233.221 68.3963L238.581 68.5963ZM270.907 54.6363L275.107 77.1563L278.747 77.5163C278.747 78.2363 278.52 79.023 278.067 79.8763H268.867L268.747 78.4763C269.547 78.1296 270.534 77.8496 271.707 77.6363L267.427 55.1963L262.147 77.9563H258.187L250.907 55.1163L247.667 77.1563L251.067 77.4763C251.067 78.223 250.84 79.023 250.387 79.8763H241.187L241.067 78.4763C242.24 78.0496 243.414 77.7296 244.587 77.5163L248.107 54.3163C246.48 54.0763 245.187 53.7963 244.227 53.4763L244.387 51.8763H253.707L260.067 73.7963H260.227L265.187 51.8763H274.107C274.56 52.7296 274.787 53.5563 274.787 54.3563C273.054 54.543 271.76 54.6363 270.907 54.6363ZM290.934 77.6363C292.107 77.6363 293.947 77.0763 296.454 75.9563C296.961 76.6496 297.227 77.263 297.254 77.7963C295.894 78.5963 294.561 79.223 293.254 79.6763C291.947 80.1296 291.014 80.3563 290.454 80.3563C287.361 80.3563 285.001 79.4363 283.374 77.5963C281.747 75.7296 280.934 73.1296 280.934 69.7963C280.934 66.463 281.721 63.8496 283.294 61.9563C284.894 60.0363 287.281 59.0763 290.454 59.0763C292.907 59.0763 294.774 59.9563 296.054 61.7163C297.361 63.4763 298.014 65.8363 298.014 68.7963C297.801 69.1696 297.627 69.423 297.494 69.5563L284.614 69.3563C284.641 72.0496 285.107 74.103 286.014 75.5163C286.947 76.9296 288.587 77.6363 290.934 77.6363ZM294.374 67.0763C294.374 65.3163 294.054 63.9563 293.414 62.9963C292.774 62.0096 291.707 61.5163 290.214 61.5163C288.721 61.5163 287.387 61.7963 286.214 62.3563C285.414 63.9563 284.907 65.5963 284.694 67.2763C286.801 67.2496 290.027 67.183 294.374 67.0763ZM315.003 61.3563L314.883 53.3563C313.416 53.2763 312.243 53.1163 311.363 52.8763L311.523 50.7963C312.883 50.3963 314.856 50.1963 317.443 50.1963C318.27 50.1963 318.856 50.223 319.203 50.2763C319.203 50.7563 319.123 51.3963 318.963 52.1963C318.83 52.9696 318.736 53.3963 318.683 53.4763L318.323 77.1163C319.416 77.1696 320.576 77.3563 321.803 77.6763L321.723 79.0763C319.883 79.9296 318.256 80.3563 316.843 80.3563C316.55 80.3563 316.323 80.343 316.163 80.3163C315.95 79.9163 315.683 78.9963 315.363 77.5563C312.296 79.2896 310.15 80.223 308.923 80.3563C306.363 80.3563 304.443 79.383 303.163 77.4363C301.883 75.4896 301.243 72.9963 301.243 69.9563C301.243 66.8896 301.883 64.3163 303.163 62.2363C304.47 60.1296 306.39 59.0763 308.923 59.0763C310.896 59.0763 312.923 59.8363 315.003 61.3563ZM309.603 61.7963C306.483 61.7963 304.923 64.3563 304.923 69.4763C304.923 71.4763 305.243 73.2096 305.883 74.6763C306.203 75.4763 306.67 76.1163 307.283 76.5963C307.923 77.0763 308.656 77.3163 309.483 77.3163C310.31 77.3163 311.27 77.1296 312.363 76.7563C313.483 76.383 314.443 75.9563 315.243 75.4763L315.003 64.0763C314.283 63.463 313.403 62.9296 312.363 62.4763C311.323 62.023 310.403 61.7963 309.603 61.7963ZM331.06 55.7563C330.367 55.9163 329.687 55.9963 329.02 55.9963C328.38 55.9963 327.74 55.9563 327.1 55.8763C326.94 55.1296 326.86 54.383 326.86 53.6363C326.86 52.863 326.887 52.2896 326.94 51.9163C327.527 51.783 328.14 51.7163 328.78 51.7163C329.447 51.7163 330.153 51.743 330.9 51.7963C331.06 52.4896 331.14 53.1696 331.14 53.8363C331.14 54.4763 331.113 55.1163 331.06 55.7563ZM323.78 59.9563C326.047 59.5563 327.807 59.3563 329.06 59.3563C330.313 59.3563 331.113 59.383 331.46 59.4363C331.46 60.0763 331.38 60.783 331.22 61.5563C331.06 62.3296 330.967 62.703 330.94 62.6763L330.58 77.1563L333.94 77.4763C333.94 78.223 333.713 79.023 333.26 79.8763H324.06L323.94 78.4763C325.167 78.0496 326.367 77.7296 327.54 77.5163C327.38 70.8496 327.247 65.8496 327.14 62.5163C325.593 62.5163 324.42 62.3563 323.62 62.0363L323.78 59.9563ZM346.485 77.2363C347.258 77.2363 348.125 77.0763 349.085 76.7563C350.045 76.4096 350.831 75.9963 351.445 75.5163C351.338 69.8363 351.245 65.5296 351.165 62.5963C349.511 62.5963 348.285 62.4363 347.485 62.1163L347.645 60.0363C349.911 59.6363 351.685 59.4363 352.965 59.4363C354.271 59.4363 355.098 59.463 355.445 59.5163C355.445 59.9963 355.365 60.6363 355.205 61.4363C355.071 62.2363 354.978 62.6763 354.925 62.7563L354.445 77.0363C355.858 77.1163 357.005 77.2763 357.885 77.5163L357.805 79.5563C356.631 79.9296 355.498 80.1163 354.405 80.1163C353.311 80.1163 352.645 80.103 352.405 80.0763C351.898 79.063 351.605 78.1296 351.525 77.2763C350.218 78.263 349.005 79.023 347.885 79.5563C346.791 80.0896 346.071 80.3563 345.725 80.3563C343.378 80.3563 341.671 79.7296 340.605 78.4763C339.565 77.1963 339.045 75.3296 339.045 72.8763C339.045 72.8496 339.165 69.4363 339.405 62.6363C337.858 62.6363 336.431 62.463 335.125 62.1163L335.285 60.0363C337.551 59.6363 339.311 59.4363 340.565 59.4363C341.818 59.4363 342.618 59.463 342.965 59.5163C342.965 60.1563 342.885 60.863 342.725 61.6363C342.565 62.4096 342.471 62.783 342.445 62.7563L342.485 71.3963C342.485 73.423 342.738 74.903 343.245 75.8363C343.751 76.7696 344.831 77.2363 346.485 77.2363ZM379.354 63.5563C379.46 64.4096 379.514 65.3963 379.514 66.5163C379.514 67.6363 379.407 71.183 379.194 77.1563L382.554 77.4763C382.554 78.223 382.327 79.023 381.874 79.8763H372.674L372.554 78.4763C373.78 78.0496 374.98 77.7296 376.154 77.5163C375.994 70.423 375.847 66.4763 375.714 65.6763C375.607 64.8763 375.42 64.2096 375.154 63.6763C374.887 63.1163 374.474 62.7296 373.914 62.5163C373.354 62.303 372.5 62.1963 371.354 62.1963C370.234 62.1963 368.754 62.623 366.914 63.4763C366.754 69.5563 366.647 74.1163 366.594 77.1563L369.954 77.4763C369.954 78.223 369.727 79.023 369.274 79.8763H360.074L359.954 78.4763C361.18 78.0496 362.38 77.7296 363.554 77.5163C363.527 75.5963 363.46 72.8896 363.354 69.3963C363.247 65.8763 363.18 63.5696 363.154 62.4763C361.687 62.3963 360.514 62.2363 359.634 61.9963L359.794 59.9163C361.234 59.5163 363.327 59.3163 366.074 59.3163C366.447 59.983 366.687 60.6763 366.794 61.3963C367.967 60.783 369.127 60.2496 370.274 59.7963C371.42 59.3163 372.14 59.0763 372.434 59.0763C375.394 59.0763 377.46 59.983 378.634 61.7963C379.86 61.1296 381.127 60.5163 382.434 59.9563C383.767 59.3696 384.567 59.0763 384.834 59.0763C387.26 59.0763 389.074 59.6763 390.274 60.8763C391.5 62.0496 392.114 63.983 392.114 66.6763C392.114 67.4763 392.007 70.9696 391.794 77.1563L395.154 77.4763C395.154 78.223 394.927 79.023 394.474 79.8763H385.274L385.154 78.4763C386.38 78.0496 387.58 77.7296 388.754 77.5163C388.647 73.303 388.554 70.1163 388.474 67.9563C388.394 65.7963 388.087 64.303 387.554 63.4763C387.02 62.623 385.954 62.1963 384.354 62.1963C382.754 62.1963 381.087 62.6496 379.354 63.5563Z" fill="black"/>
<path d="M23.2088 69.6859L23.3568 48.573H20.4401V75.4349C24.4545 74.5891 28.475 74.0505 32.5325 74.0303C36.2755 74.0102 40.0185 74.4381 43.7739 75.4751C41.443 73.9347 38.8407 72.802 36.072 72.062C32.5756 71.1307 28.8018 70.8236 24.9293 71.0955C24.0536 71.1559 23.289 70.6223 23.215 69.9125C23.2027 69.8319 23.2027 69.7615 23.2088 69.6859ZM27.7103 34.4826C27.3403 34.4876 27.0074 34.3718 26.7607 34.1856C26.5079 33.9893 26.3475 33.7225 26.3352 33.4103C26.3229 33.1083 26.4647 32.8214 26.699 32.62C26.9395 32.4136 27.2663 32.2827 27.6487 32.2726L30.6086 32.1921C30.9785 32.182 31.33 32.2978 31.5767 32.4891C31.8295 32.6854 31.9898 32.9522 32.0022 33.2644V33.2795H32.0083L32.0022 33.3197C31.996 33.6016 31.8603 33.8634 31.6384 34.0547C31.3979 34.2611 31.071 34.392 30.6887 34.4021H30.6702V34.4071H30.6394L27.7103 34.4826ZM45.9383 18.1722C45.9506 17.8651 46.111 17.5933 46.3638 17.3969C46.6105 17.2056 46.9496 17.0898 47.3134 17.0949V17.0898C47.3443 17.0898 47.3751 17.0949 47.4059 17.0949C47.7451 17.12 48.0534 17.2459 48.2754 17.4322C48.5097 17.6335 48.6515 17.9054 48.6454 18.2074H48.6515C48.6515 18.2275 48.6515 18.2477 48.6454 18.2628L48.5714 20.6238H48.5775C48.5775 20.6489 48.5714 20.6741 48.5714 20.6993C48.5467 20.9812 48.3864 21.2279 48.1582 21.4091C47.9116 21.6004 47.5724 21.7162 47.2086 21.7111C47.1778 21.7111 47.1469 21.7111 47.1161 21.7061C46.7708 21.686 46.4686 21.5551 46.2466 21.3688C46.0123 21.1675 45.8705 20.8906 45.8705 20.5936H45.8643C45.8643 20.5734 45.8643 20.5533 45.8705 20.5382L45.9383 18.1722ZM58.7398 21.4292C58.9495 21.1725 59.264 21.0164 59.597 20.9611C59.9361 20.9057 60.2999 20.956 60.6144 21.1272L60.6206 21.1322C60.9289 21.2983 61.1262 21.5601 61.1941 21.837C61.2619 22.1139 61.1941 22.4109 60.9906 22.6676L59.3441 24.6812C59.1345 24.938 58.82 25.0991 58.4808 25.1544C58.1417 25.2098 57.7779 25.1595 57.4634 24.9883C57.1489 24.8172 56.9577 24.5604 56.8899 24.2835C56.8221 24.0067 56.8837 23.7097 57.0934 23.4529L58.7398 21.4292ZM64.5733 31.0544L64.6164 31.0494C64.9679 31.0343 65.2948 31.1249 65.5537 31.296C65.8251 31.4722 66.0039 31.739 66.0471 32.0411V32.0511C66.0471 32.0511 66.0471 32.0813 66.0471 32.0864C66.0656 32.3733 65.9546 32.6452 65.7449 32.8516C65.5291 33.0731 65.2023 33.219 64.8323 33.2543L61.8847 33.506C61.5147 33.5362 61.1571 33.4405 60.8919 33.2644C60.6206 33.0882 60.4356 32.8214 60.3986 32.5193C60.3616 32.2173 60.4788 31.9253 60.6946 31.7088C60.9104 31.4873 61.2372 31.3363 61.6072 31.3061C62.6 31.2255 63.5867 31.1299 64.5733 31.0544ZM31.256 22.3102C30.9847 22.0988 30.8367 21.8219 30.8244 21.54C30.812 21.2581 30.9292 20.9711 31.182 20.7496C31.441 20.5231 31.7802 20.4073 32.1255 20.3972C32.4708 20.3872 32.8223 20.4828 33.0936 20.6892L35.2642 22.3404C35.5355 22.5468 35.6835 22.8287 35.6959 23.1106C35.7082 23.3975 35.591 23.6795 35.3382 23.901C35.0854 24.1225 34.7401 24.2433 34.3947 24.2533C34.0433 24.2634 33.6979 24.1678 33.4266 23.9614L31.256 22.3102ZM38.0699 42.9399C37.5581 42.4616 37.034 41.9733 36.5283 41.4145C36.0042 40.8406 35.5047 40.1912 35.0607 39.421H35.0546C34.6291 38.671 34.2899 37.9007 34.0618 37.1104C33.8336 36.3251 33.7164 35.5196 33.7288 34.689C33.7349 33.8634 33.8706 33.0328 34.1358 32.1871C34.4071 31.3413 34.8017 30.4906 35.3444 29.6398L35.3937 29.5643C36.0967 28.5877 36.9477 27.7671 37.8973 27.0926C38.9086 26.3727 40.0247 25.824 41.1963 25.4313L41.2888 25.4061C42.2076 25.1041 43.1573 24.9027 44.113 24.792C45.1243 24.6712 46.1603 24.6561 47.1963 24.7316C48.2014 24.8071 49.1942 24.9732 50.15 25.2249C51.112 25.4766 52.0308 25.8139 52.8879 26.2267C54.0102 26.7704 55.0338 27.45 55.9033 28.2504C56.7419 29.0257 57.4264 29.9066 57.9197 30.8832C58.1849 31.4068 58.4068 31.9756 58.5733 32.5848C58.7398 33.1838 58.8385 33.8181 58.8632 34.4776C58.8878 35.1622 58.8262 35.867 58.6597 36.5969C58.5055 37.2815 58.2527 37.9813 57.9012 38.6961C57.8704 38.7616 57.8272 38.822 57.7779 38.8774L52.7584 45.2455C52.5796 45.472 52.2959 45.613 51.9876 45.6482L41.4615 46.8916C40.9065 46.9571 40.3947 46.6701 40.2467 46.2422C39.9815 45.6079 39.6424 44.9686 39.2601 44.3846C38.8962 43.8309 38.4893 43.3325 38.0699 42.9399ZM38.2919 40.3473C38.7544 40.8557 39.2416 41.3138 39.7225 41.7619C40.259 42.2653 40.7585 42.8744 41.1963 43.5339C41.5046 44.002 41.7883 44.5004 42.035 45.0089L51.1736 43.9366L55.8848 37.9561C56.1684 37.3772 56.3658 36.8134 56.4891 36.2747C56.6247 35.6706 56.6802 35.0917 56.6617 34.5329V34.5279C56.6432 33.9893 56.5569 33.4707 56.4274 32.9774C56.2979 32.4941 56.1068 32.0209 55.8786 31.5628C55.484 30.7674 54.929 30.0576 54.263 29.4384C53.5539 28.784 52.7091 28.2252 51.7718 27.7722C51.0503 27.4248 50.2795 27.1429 49.484 26.9315C48.6762 26.72 47.8437 26.5791 47.0051 26.5136C46.1541 26.4482 45.2908 26.4683 44.4337 26.564C43.6382 26.6546 42.8613 26.8207 42.1213 27.0624L42.035 27.0926C41.073 27.4097 40.1665 27.8577 39.3587 28.4367C38.5941 28.9803 37.9034 29.6499 37.3238 30.4553L37.3176 30.4654C36.8428 31.2104 36.5037 31.9303 36.2817 32.6351C36.0597 33.3348 35.9487 34.0245 35.9425 34.7041C35.9364 35.3736 36.035 36.0432 36.2262 36.7026C36.4173 37.3621 36.701 38.0115 37.071 38.6609H37.0648C37.4225 39.3103 37.8479 39.854 38.2919 40.3473ZM48.7995 55.8674C48.0966 56.2047 47.3073 56.396 46.518 56.4362C45.7163 56.4765 44.9147 56.3507 44.1747 56.0637C40.5735 54.629 41.554 51.2813 40.8387 48.6938L51.8889 47.3497C51.1058 50.3601 52.6967 54.0249 48.7995 55.8674ZM66.0532 47.4705C66.0471 47.4101 66.0347 47.3447 66.0347 47.2742C66.0347 47.2088 66.0409 47.1433 66.0532 47.0779V42.8039C64.4746 42.6831 63.4202 42.6731 61.8477 42.7838C62.1992 41.8676 62.5815 41.0269 62.9885 40.1308C64.8076 40.0755 66.0902 40.156 67.8723 40.3725C68.6616 40.4631 69.2289 41.0219 69.2289 41.6511V45.9754H69.2351H73.5393C74.4149 45.9754 75.124 46.5594 75.124 47.2742V77.1263C75.124 77.8412 74.4149 78.4201 73.5393 78.4201C73.3604 78.4201 73.1878 78.3999 73.0275 78.3496C68.6 77.3176 64.2033 76.6279 59.8498 76.6028C55.6011 76.5826 51.3586 77.1918 47.0976 78.7221C46.8324 78.8631 46.518 78.9436 46.1911 78.9386C45.8705 78.9436 45.556 78.8631 45.2908 78.7221C41.036 77.1867 36.7873 76.5776 32.5387 76.6028C28.1851 76.6229 23.7885 77.3126 19.3548 78.3496C19.1945 78.3949 19.0218 78.4201 18.843 78.4201C17.9674 78.4301 17.2582 77.8512 17.2582 77.1313V47.2742C17.2582 46.5594 17.9674 45.9754 18.843 45.9754H23.3692L23.4 41.6461C23.4062 41.0219 23.9426 40.5084 24.6579 40.3876C26.2797 40.1107 27.3712 39.9697 29.1779 39.9798C29.4061 40.5134 29.6774 41.042 29.9734 41.5656C30.1831 41.933 30.4051 42.2804 30.6332 42.6126C29.0053 42.517 28.068 42.5623 26.551 42.7385L26.3722 68.4224C30.0474 68.3167 33.6486 68.6942 37.034 69.6004C39.7287 70.3152 42.2816 71.3673 44.6187 72.7517V60.1111L47.7944 59.7285V73.0084C50.4891 71.5385 53.2394 70.3303 56.0698 69.5097C59.2948 68.5734 62.6124 68.1254 66.0409 68.3469V47.4705H66.0532ZM49.3422 75.2788C52.8509 74.3777 56.3534 74.0102 59.856 74.0253C63.9073 74.0455 67.9402 74.5891 71.9483 75.4298V48.573H69.2289V69.8017C69.2289 70.5166 68.5198 71.0955 67.6442 71.0955C67.5147 71.0955 67.3913 71.0854 67.2742 71.0602C63.8025 70.6122 60.4294 70.9847 57.1427 71.9412C54.5035 72.7165 51.9013 73.8693 49.3422 75.2788Z" fill="black"/>
</svg>
