<svg width="401" height="100" viewBox="0 0 401 100" fill="none" xmlns="http://www.w3.org/2000/svg">

<path d="M23.2088 69.6859L23.3568 48.573H20.4401V75.4349C24.4545 74.5891 28.475 74.0505 32.5325 74.0303C36.2755 74.0102 40.0185 74.4381 43.7739 75.4751C41.443 73.9347 38.8407 72.802 36.072 72.062C32.5756 71.1307 28.8018 70.8236 24.9293 71.0955C24.0536 71.1559 23.289 70.6223 23.215 69.9125C23.2027 69.8319 23.2027 69.7615 23.2088 69.6859ZM27.7103 34.4826C27.3403 34.4876 27.0074 34.3718 26.7607 34.1856C26.5079 33.9893 26.3475 33.7225 26.3352 33.4103C26.3229 33.1083 26.4647 32.8214 26.699 32.62C26.9395 32.4136 27.2663 32.2827 27.6487 32.2726L30.6086 32.1921C30.9785 32.182 31.33 32.2978 31.5767 32.4891C31.8295 32.6854 31.9898 32.9522 32.0022 33.2644V33.2795H32.0083L32.0022 33.3197C31.996 33.6016 31.8603 33.8634 31.6384 34.0547C31.3979 34.2611 31.071 34.392 30.6887 34.4021H30.6702V34.4071H30.6394L27.7103 34.4826ZM45.9383 18.1722C45.9506 17.8651 46.111 17.5933 46.3638 17.3969C46.6105 17.2056 46.9496 17.0898 47.3134 17.0949V17.0898C47.3443 17.0898 47.3751 17.0949 47.4059 17.0949C47.7451 17.12 48.0534 17.2459 48.2754 17.4322C48.5097 17.6335 48.6515 17.9054 48.6454 18.2074H48.6515C48.6515 18.2275 48.6515 18.2477 48.6454 18.2628L48.5714 20.6238H48.5775C48.5775 20.6489 48.5714 20.6741 48.5714 20.6993C48.5467 20.9812 48.3864 21.2279 48.1582 21.4091C47.9116 21.6004 47.5724 21.7162 47.2086 21.7111C47.1778 21.7111 47.1469 21.7111 47.1161 21.7061C46.7708 21.686 46.4686 21.5551 46.2466 21.3688C46.0123 21.1675 45.8705 20.8906 45.8705 20.5936H45.8643C45.8643 20.5734 45.8643 20.5533 45.8705 20.5382L45.9383 18.1722ZM58.7398 21.4292C58.9495 21.1725 59.264 21.0164 59.597 20.9611C59.9361 20.9057 60.2999 20.956 60.6144 21.1272L60.6206 21.1322C60.9289 21.2983 61.1262 21.5601 61.1941 21.837C61.2619 22.1139 61.1941 22.4109 60.9906 22.6676L59.3441 24.6812C59.1345 24.938 58.82 25.0991 58.4808 25.1544C58.1417 25.2098 57.7779 25.1595 57.4634 24.9883C57.1489 24.8172 56.9577 24.5604 56.8899 24.2835C56.8221 24.0067 56.8837 23.7097 57.0934 23.4529L58.7398 21.4292ZM64.5733 31.0544L64.6164 31.0494C64.9679 31.0343 65.2948 31.1249 65.5537 31.296C65.8251 31.4722 66.0039 31.739 66.0471 32.0411V32.0511C66.0471 32.0511 66.0471 32.0813 66.0471 32.0864C66.0656 32.3733 65.9546 32.6452 65.7449 32.8516C65.5291 33.0731 65.2023 33.219 64.8323 33.2543L61.8847 33.506C61.5147 33.5362 61.1571 33.4405 60.8919 33.2644C60.6206 33.0882 60.4356 32.8214 60.3986 32.5193C60.3616 32.2173 60.4788 31.9253 60.6946 31.7088C60.9104 31.4873 61.2372 31.3363 61.6072 31.3061C62.6 31.2255 63.5867 31.1299 64.5733 31.0544ZM31.256 22.3102C30.9847 22.0988 30.8367 21.8219 30.8244 21.54C30.812 21.2581 30.9292 20.9711 31.182 20.7496C31.441 20.5231 31.7802 20.4073 32.1255 20.3972C32.4708 20.3872 32.8223 20.4828 33.0936 20.6892L35.2642 22.3404C35.5355 22.5468 35.6835 22.8287 35.6959 23.1106C35.7082 23.3975 35.591 23.6795 35.3382 23.901C35.0854 24.1225 34.7401 24.2433 34.3947 24.2533C34.0433 24.2634 33.6979 24.1678 33.4266 23.9614L31.256 22.3102ZM38.0699 42.9399C37.5581 42.4616 37.034 41.9733 36.5283 41.4145C36.0042 40.8406 35.5047 40.1912 35.0607 39.421H35.0546C34.6291 38.671 34.2899 37.9007 34.0618 37.1104C33.8336 36.3251 33.7164 35.5196 33.7288 34.689C33.7349 33.8634 33.8706 33.0328 34.1358 32.1871C34.4071 31.3413 34.8017 30.4906 35.3444 29.6398L35.3937 29.5643C36.0967 28.5877 36.9477 27.7671 37.8973 27.0926C38.9086 26.3727 40.0247 25.824 41.1963 25.4313L41.2888 25.4061C42.2076 25.1041 43.1573 24.9027 44.113 24.792C45.1243 24.6712 46.1603 24.6561 47.1963 24.7316C48.2014 24.8071 49.1942 24.9732 50.15 25.2249C51.112 25.4766 52.0308 25.8139 52.8879 26.2267C54.0102 26.7704 55.0338 27.45 55.9033 28.2504C56.7419 29.0257 57.4264 29.9066 57.9197 30.8832C58.1849 31.4068 58.4068 31.9756 58.5733 32.5848C58.7398 33.1838 58.8385 33.8181 58.8632 34.4776C58.8878 35.1622 58.8262 35.867 58.6597 36.5969C58.5055 37.2815 58.2527 37.9813 57.9012 38.6961C57.8704 38.7616 57.8272 38.822 57.7779 38.8774L52.7584 45.2455C52.5796 45.472 52.2959 45.613 51.9876 45.6482L41.4615 46.8916C40.9065 46.9571 40.3947 46.6701 40.2467 46.2422C39.9815 45.6079 39.6424 44.9686 39.2601 44.3846C38.8962 43.8309 38.4893 43.3325 38.0699 42.9399ZM38.2919 40.3473C38.7544 40.8557 39.2416 41.3138 39.7225 41.7619C40.259 42.2653 40.7585 42.8744 41.1963 43.5339C41.5046 44.002 41.7883 44.5004 42.035 45.0089L51.1736 43.9366L55.8848 37.9561C56.1684 37.3772 56.3658 36.8134 56.4891 36.2747C56.6247 35.6706 56.6802 35.0917 56.6617 34.5329V34.5279C56.6432 33.9893 56.5569 33.4707 56.4274 32.9774C56.2979 32.4941 56.1068 32.0209 55.8786 31.5628C55.484 30.7674 54.929 30.0576 54.263 29.4384C53.5539 28.784 52.7091 28.2252 51.7718 27.7722C51.0503 27.4248 50.2795 27.1429 49.484 26.9315C48.6762 26.72 47.8437 26.5791 47.0051 26.5136C46.1541 26.4482 45.2908 26.4683 44.4337 26.564C43.6382 26.6546 42.8613 26.8207 42.1213 27.0624L42.035 27.0926C41.073 27.4097 40.1665 27.8577 39.3587 28.4367C38.5941 28.9803 37.9034 29.6499 37.3238 30.4553L37.3176 30.4654C36.8428 31.2104 36.5037 31.9303 36.2817 32.6351C36.0597 33.3348 35.9487 34.0245 35.9425 34.7041C35.9364 35.3736 36.035 36.0432 36.2262 36.7026C36.4173 37.3621 36.701 38.0115 37.071 38.6609H37.0648C37.4225 39.3103 37.8479 39.854 38.2919 40.3473ZM48.7995 55.8674C48.0966 56.2047 47.3073 56.396 46.518 56.4362C45.7163 56.4765 44.9147 56.3507 44.1747 56.0637C40.5735 54.629 41.554 51.2813 40.8387 48.6938L51.8889 47.3497C51.1058 50.3601 52.6967 54.0249 48.7995 55.8674ZM66.0532 47.4705C66.0471 47.4101 66.0347 47.3447 66.0347 47.2742C66.0347 47.2088 66.0409 47.1433 66.0532 47.0779V42.8039C64.4746 42.6831 63.4202 42.6731 61.8477 42.7838C62.1992 41.8676 62.5815 41.0269 62.9885 40.1308C64.8076 40.0755 66.0902 40.156 67.8723 40.3725C68.6616 40.4631 69.2289 41.0219 69.2289 41.6511V45.9754H69.2351H73.5393C74.4149 45.9754 75.124 46.5594 75.124 47.2742V77.1263C75.124 77.8412 74.4149 78.4201 73.5393 78.4201C73.3604 78.4201 73.1878 78.3999 73.0275 78.3496C68.6 77.3176 64.2033 76.6279 59.8498 76.6028C55.6011 76.5826 51.3586 77.1918 47.0976 78.7221C46.8324 78.8631 46.518 78.9436 46.1911 78.9386C45.8705 78.9436 45.556 78.8631 45.2908 78.7221C41.036 77.1867 36.7873 76.5776 32.5387 76.6028C28.1851 76.6229 23.7885 77.3126 19.3548 78.3496C19.1945 78.3949 19.0218 78.4201 18.843 78.4201C17.9674 78.4301 17.2582 77.8512 17.2582 77.1313V47.2742C17.2582 46.5594 17.9674 45.9754 18.843 45.9754H23.3692L23.4 41.6461C23.4062 41.0219 23.9426 40.5084 24.6579 40.3876C26.2797 40.1107 27.3712 39.9697 29.1779 39.9798C29.4061 40.5134 29.6774 41.042 29.9734 41.5656C30.1831 41.933 30.4051 42.2804 30.6332 42.6126C29.0053 42.517 28.068 42.5623 26.551 42.7385L26.3722 68.4224C30.0474 68.3167 33.6486 68.6942 37.034 69.6004C39.7287 70.3152 42.2816 71.3673 44.6187 72.7517V60.1111L47.7944 59.7285V73.0084C50.4891 71.5385 53.2394 70.3303 56.0698 69.5097C59.2948 68.5734 62.6124 68.1254 66.0409 68.3469V47.4705H66.0532ZM49.3422 75.2788C52.8509 74.3777 56.3534 74.0102 59.856 74.0253C63.9073 74.0455 67.9402 74.5891 71.9483 75.4298V48.573H69.2289V69.8017C69.2289 70.5166 68.5198 71.0955 67.6442 71.0955C67.5147 71.0955 67.3913 71.0854 67.2742 71.0602C63.8025 70.6122 60.4294 70.9847 57.1427 71.9412C54.5035 72.7165 51.9013 73.8693 49.3422 75.2788Z" fill="White"/>
</svg>
