<svg width="403" height="56" viewBox="0 0 403 56" fill="none" xmlns="http://www.w3.org/2000/svg">
<path d="M92.7094 20.4363L92.3094 43.1563L95.6694 43.4763C95.6694 44.223 95.4427 45.023 94.9894 45.8763H85.7894L85.6694 44.4763C86.896 44.0496 88.1094 43.7296 89.3094 43.5163C89.256 41.783 89.1627 38.2096 89.0294 32.7963C88.9227 27.383 88.8294 23.1963 88.7494 20.2363C87.6827 20.023 86.4827 19.703 85.1494 19.2763L85.2694 17.8763H95.2694C95.7227 18.7296 95.9494 19.5296 95.9494 20.2763C94.5894 20.383 93.5094 20.4363 92.7094 20.4363ZM112.065 25.0763C114.625 25.0763 116.478 25.7163 117.625 26.9963C118.771 28.2496 119.345 30.1696 119.345 32.7563C119.345 33.503 119.238 36.9696 119.025 43.1563L122.385 43.4763C122.385 44.223 122.158 45.023 121.705 45.8763H112.505L112.385 44.4763C113.611 44.0496 114.811 43.7296 115.985 43.5163C115.825 36.5296 115.678 32.6496 115.545 31.8763C115.438 31.0763 115.251 30.383 114.985 29.7963C114.718 29.2096 114.318 28.7963 113.785 28.5563C113.251 28.3163 112.545 28.1963 111.665 28.1963C109.905 28.1963 108.198 28.623 106.545 29.4763C106.385 35.5563 106.278 40.1163 106.225 43.1563L109.585 43.4763C109.585 44.223 109.358 45.023 108.905 45.8763H99.7047L99.5847 44.4763C100.811 44.0496 102.011 43.7296 103.185 43.5163C103.025 36.743 102.891 31.7296 102.785 28.4763C101.318 28.3963 100.145 28.2363 99.2647 27.9963L99.4247 25.9163C100.865 25.5163 102.958 25.3163 105.705 25.3163C106.025 25.7963 106.265 26.4896 106.425 27.3963C107.571 26.783 108.718 26.2496 109.865 25.7963C111.038 25.3163 111.771 25.0763 112.065 25.0763ZM127.553 43.3163C128.486 43.7163 129.62 43.9163 130.953 43.9163C132.313 43.9163 133.38 43.663 134.153 43.1563C134.926 42.6496 135.313 41.9563 135.313 41.0763C135.313 40.1963 134.953 39.463 134.233 38.8763C133.513 38.2896 132.633 37.7696 131.593 37.3163C130.553 36.863 129.513 36.383 128.473 35.8763C127.433 35.3696 126.553 34.703 125.833 33.8763C125.113 33.0496 124.753 32.0896 124.753 30.9963C124.753 29.1563 125.366 27.7163 126.593 26.6763C127.82 25.6096 129.513 25.0763 131.673 25.0763C133.86 25.0763 135.913 25.5696 137.833 26.5563C137.86 26.823 137.873 27.543 137.873 28.7163C137.873 29.863 137.753 30.8496 137.513 31.6763C136.873 31.8896 136.113 31.9963 135.233 31.9963L133.913 27.9163C133.326 27.623 132.526 27.4763 131.513 27.4763C130.526 27.4763 129.74 27.743 129.153 28.2763C128.566 28.783 128.273 29.4363 128.273 30.2363C128.273 31.0096 128.633 31.6896 129.353 32.2763C130.1 32.863 130.993 33.3963 132.033 33.8763C133.073 34.3296 134.113 34.823 135.153 35.3563C136.193 35.863 137.073 36.543 137.793 37.3963C138.54 38.223 138.913 39.183 138.913 40.2763C138.913 42.1963 138.166 43.703 136.673 44.7963C135.206 45.863 133.393 46.3963 131.233 46.3963C130.06 46.3963 128.806 46.2096 127.473 45.8363C126.14 45.4363 125.02 44.9296 124.113 44.3163C124.113 42.5296 124.273 40.943 124.593 39.5563C125.206 39.4496 126.033 39.3963 127.073 39.3963L127.553 43.3163ZM149.519 21.7563C148.826 21.9163 148.146 21.9963 147.479 21.9963C146.839 21.9963 146.199 21.9563 145.559 21.8763C145.399 21.1296 145.319 20.383 145.319 19.6363C145.319 18.863 145.346 18.2896 145.399 17.9163C145.986 17.783 146.599 17.7163 147.239 17.7163C147.906 17.7163 148.612 17.743 149.359 17.7963C149.519 18.4896 149.599 19.1696 149.599 19.8363C149.599 20.4763 149.572 21.1163 149.519 21.7563ZM142.239 25.9563C144.506 25.5563 146.266 25.3563 147.519 25.3563C148.772 25.3563 149.572 25.383 149.919 25.4363C149.919 26.0763 149.839 26.783 149.679 27.5563C149.519 28.3296 149.426 28.703 149.399 28.6763L149.039 43.1563L152.399 43.4763C152.399 44.223 152.172 45.023 151.719 45.8763H142.519L142.399 44.4763C143.626 44.0496 144.826 43.7296 145.999 43.5163C145.839 36.8496 145.706 31.8496 145.599 28.5163C144.052 28.5163 142.879 28.3563 142.079 28.0363L142.239 25.9563ZM165.184 43.4363L168.744 43.3563C172.424 43.3563 174.264 44.8763 174.264 47.9163C174.264 49.3296 173.65 50.6363 172.424 51.8363C171.224 53.063 169.784 53.983 168.104 54.5963C166.424 55.2096 164.85 55.5163 163.384 55.5163C161.944 55.5163 160.597 55.303 159.344 54.8763C158.09 54.4763 157.024 53.8096 156.144 52.8763C155.264 51.943 154.824 50.863 154.824 49.6363C154.824 49.343 155.29 48.5696 156.224 47.3163C157.184 46.0896 157.81 45.3696 158.104 45.1563C157.864 44.9963 157.397 44.543 156.704 43.7963C156.01 43.023 155.624 42.4896 155.544 42.1963C156.21 40.9696 157.264 39.7696 158.704 38.5963C156.57 37.3163 155.504 35.2096 155.504 32.2763C155.504 29.9296 156.25 28.143 157.744 26.9163C159.237 25.6896 161.104 25.0763 163.344 25.0763C165.584 25.0763 167.317 25.4363 168.544 26.1563C170.677 25.7296 172.77 25.5163 174.824 25.5163C175.33 25.5163 175.584 25.823 175.584 26.4363C175.584 27.503 175.384 28.2363 174.984 28.6363L170.384 27.8763C171.344 29.103 171.824 30.5696 171.824 32.2763C171.824 34.943 171.037 36.863 169.464 38.0363C167.89 39.183 165.957 39.7563 163.664 39.7563C162.944 39.7563 162.09 39.663 161.104 39.4763C160.704 40.303 160.197 41.1963 159.584 42.1563C160.064 43.0096 161.93 43.4363 165.184 43.4363ZM170.264 50.7963C170.53 50.0496 170.664 49.2763 170.664 48.4763C170.664 47.703 170.357 47.0763 169.744 46.5963C169.13 46.1163 168.344 45.8763 167.384 45.8763C163.57 45.8763 161.237 45.8363 160.384 45.7563C159.664 46.903 159.157 47.863 158.864 48.6363C158.597 49.4363 158.464 49.8896 158.464 49.9963C158.464 51.0363 158.957 51.8096 159.944 52.3163C160.93 52.823 162.064 53.0763 163.344 53.0763C164.65 53.0763 165.957 52.863 167.264 52.4363C168.597 52.0096 169.597 51.463 170.264 50.7963ZM168.224 32.4363C168.224 29.1296 166.704 27.4763 163.664 27.4763C160.624 27.4763 159.104 29.0763 159.104 32.2763C159.104 33.903 159.504 35.1563 160.304 36.0363C161.104 36.9163 162.264 37.3563 163.784 37.3563C166.744 37.3563 168.224 35.7163 168.224 32.4363ZM183.349 16.1563C184.175 16.1563 184.762 16.183 185.109 16.2363C185.109 16.7163 185.029 17.343 184.869 18.1163C184.735 18.863 184.642 19.303 184.589 19.4363C184.589 20.023 184.562 21.2363 184.509 23.0763C184.455 24.9163 184.429 26.343 184.429 27.3563C185.575 26.743 186.709 26.2096 187.829 25.7563C188.975 25.303 189.695 25.0763 189.989 25.0763C192.549 25.0763 194.402 25.7163 195.549 26.9963C196.695 28.2496 197.269 30.1696 197.269 32.7563C197.269 33.503 197.162 36.9696 196.949 43.1563L200.309 43.4763C200.309 44.223 200.082 45.023 199.629 45.8763H190.429L190.309 44.4763C191.535 44.0496 192.735 43.7296 193.909 43.5163C193.749 36.5296 193.602 32.6496 193.469 31.8763C193.362 31.0763 193.175 30.383 192.909 29.7963C192.642 29.2096 192.242 28.7963 191.709 28.5563C191.175 28.3163 190.469 28.1963 189.589 28.1963C187.775 28.1963 186.042 28.623 184.389 29.4763L184.149 43.1563L187.509 43.4763C187.509 44.223 187.282 45.023 186.829 45.8763H177.629L177.509 44.4763C178.735 44.0496 179.935 43.7296 181.109 43.5163L180.629 19.3163C179.162 19.2363 177.989 19.0763 177.109 18.8363L177.269 16.7563C178.629 16.3563 180.655 16.1563 183.349 16.1563ZM205.396 43.3963L205.076 28.3163H201.996L201.876 26.9163C202.143 26.7296 202.916 26.383 204.196 25.8763L207.476 20.7563C208.01 20.8096 208.423 20.943 208.716 21.1563L208.676 25.5563C210.676 25.5563 212.316 25.6896 213.596 25.9563C213.596 26.6763 213.37 27.463 212.916 28.3163H208.596C208.543 31.5163 208.49 36.3696 208.436 42.8763C209.93 42.9563 211.423 43.223 212.916 43.6763L212.876 45.0763C212.503 45.3163 211.543 45.5963 209.996 45.9163C208.476 46.2363 207.223 46.3963 206.236 46.3963C206.103 46.183 205.93 45.7296 205.716 45.0363C205.503 44.3163 205.396 43.7696 205.396 43.3963ZM226.102 34.5963C226.156 35.023 226.182 35.383 226.182 35.6763L226.102 37.0763C224.716 37.2096 223.409 37.2763 222.182 37.2763L216.822 37.0763C216.769 36.8896 216.742 36.543 216.742 36.0363L216.822 34.5963C218.209 34.463 219.516 34.3963 220.742 34.3963L226.102 34.5963ZM258.428 20.6363L262.628 43.1563L266.268 43.5163C266.268 44.2363 266.042 45.023 265.588 45.8763H256.388L256.268 44.4763C257.068 44.1296 258.055 43.8496 259.228 43.6363L254.948 21.1963L249.668 43.9563H245.708L238.428 21.1163L235.188 43.1563L238.588 43.4763C238.588 44.223 238.362 45.023 237.908 45.8763H228.708L228.588 44.4763C229.762 44.0496 230.935 43.7296 232.108 43.5163L235.628 20.3163C234.002 20.0763 232.708 19.7963 231.748 19.4763L231.908 17.8763H241.228L247.588 39.7963H247.748L252.708 17.8763H261.628C262.082 18.7296 262.308 19.5563 262.308 20.3563C260.575 20.543 259.282 20.6363 258.428 20.6363ZM278.456 43.6363C279.629 43.6363 281.469 43.0763 283.976 41.9563C284.482 42.6496 284.749 43.263 284.776 43.7963C283.416 44.5963 282.082 45.223 280.776 45.6763C279.469 46.1296 278.536 46.3563 277.976 46.3563C274.882 46.3563 272.522 45.4363 270.896 43.5963C269.269 41.7296 268.456 39.1296 268.456 35.7963C268.456 32.463 269.242 29.8496 270.816 27.9563C272.416 26.0363 274.802 25.0763 277.976 25.0763C280.429 25.0763 282.296 25.9563 283.576 27.7163C284.882 29.4763 285.536 31.8363 285.536 34.7963C285.322 35.1696 285.149 35.423 285.016 35.5563L272.136 35.3563C272.162 38.0496 272.629 40.103 273.536 41.5163C274.469 42.9296 276.109 43.6363 278.456 43.6363ZM281.896 33.0763C281.896 31.3163 281.576 29.9563 280.936 28.9963C280.296 28.0096 279.229 27.5163 277.736 27.5163C276.242 27.5163 274.909 27.7963 273.736 28.3563C272.936 29.9563 272.429 31.5963 272.216 33.2763C274.322 33.2496 277.549 33.183 281.896 33.0763ZM302.524 27.3563L302.404 19.3563C300.938 19.2763 299.764 19.1163 298.884 18.8763L299.044 16.7963C300.404 16.3963 302.378 16.1963 304.964 16.1963C305.791 16.1963 306.378 16.223 306.724 16.2763C306.724 16.7563 306.644 17.3963 306.484 18.1963C306.351 18.9696 306.258 19.3963 306.204 19.4763L305.844 43.1163C306.938 43.1696 308.098 43.3563 309.324 43.6763L309.244 45.0763C307.404 45.9296 305.778 46.3563 304.364 46.3563C304.071 46.3563 303.844 46.343 303.684 46.3163C303.471 45.9163 303.204 44.9963 302.884 43.5563C299.818 45.2896 297.671 46.223 296.444 46.3563C293.884 46.3563 291.964 45.383 290.684 43.4363C289.404 41.4896 288.764 38.9963 288.764 35.9563C288.764 32.8896 289.404 30.3163 290.684 28.2363C291.991 26.1296 293.911 25.0763 296.444 25.0763C298.418 25.0763 300.444 25.8363 302.524 27.3563ZM297.124 27.7963C294.004 27.7963 292.444 30.3563 292.444 35.4763C292.444 37.4763 292.764 39.2096 293.404 40.6763C293.724 41.4763 294.191 42.1163 294.804 42.5963C295.444 43.0763 296.178 43.3163 297.004 43.3163C297.831 43.3163 298.791 43.1296 299.884 42.7563C301.004 42.383 301.964 41.9563 302.764 41.4763L302.524 30.0763C301.804 29.463 300.924 28.9296 299.884 28.4763C298.844 28.023 297.924 27.7963 297.124 27.7963ZM318.582 21.7563C317.888 21.9163 317.208 21.9963 316.542 21.9963C315.902 21.9963 315.262 21.9563 314.622 21.8763C314.462 21.1296 314.382 20.383 314.382 19.6363C314.382 18.863 314.408 18.2896 314.462 17.9163C315.048 17.783 315.662 17.7163 316.302 17.7163C316.968 17.7163 317.675 17.743 318.422 17.7963C318.582 18.4896 318.662 19.1696 318.662 19.8363C318.662 20.4763 318.635 21.1163 318.582 21.7563ZM311.302 25.9563C313.568 25.5563 315.328 25.3563 316.582 25.3563C317.835 25.3563 318.635 25.383 318.982 25.4363C318.982 26.0763 318.902 26.783 318.742 27.5563C318.582 28.3296 318.488 28.703 318.462 28.6763L318.102 43.1563L321.462 43.4763C321.462 44.223 321.235 45.023 320.782 45.8763H311.582L311.462 44.4763C312.688 44.0496 313.888 43.7296 315.062 43.5163C314.902 36.8496 314.768 31.8496 314.662 28.5163C313.115 28.5163 311.942 28.3563 311.142 28.0363L311.302 25.9563ZM334.006 43.2363C334.78 43.2363 335.646 43.0763 336.606 42.7563C337.566 42.4096 338.353 41.9963 338.966 41.5163C338.86 35.8363 338.766 31.5296 338.686 28.5963C337.033 28.5963 335.806 28.4363 335.006 28.1163L335.166 26.0363C337.433 25.6363 339.206 25.4363 340.486 25.4363C341.793 25.4363 342.62 25.463 342.966 25.5163C342.966 25.9963 342.886 26.6363 342.726 27.4363C342.593 28.2363 342.5 28.6763 342.446 28.7563L341.966 43.0363C343.38 43.1163 344.526 43.2763 345.406 43.5163L345.326 45.5563C344.153 45.9296 343.02 46.1163 341.926 46.1163C340.833 46.1163 340.166 46.103 339.926 46.0763C339.42 45.063 339.126 44.1296 339.046 43.2763C337.74 44.263 336.526 45.023 335.406 45.5563C334.313 46.0896 333.593 46.3563 333.246 46.3563C330.9 46.3563 329.193 45.7296 328.126 44.4763C327.086 43.1963 326.566 41.3296 326.566 38.8763C326.566 38.8496 326.686 35.4363 326.926 28.6363C325.38 28.6363 323.953 28.463 322.646 28.1163L322.806 26.0363C325.073 25.6363 326.833 25.4363 328.086 25.4363C329.34 25.4363 330.14 25.463 330.486 25.5163C330.486 26.1563 330.406 26.863 330.246 27.6363C330.086 28.4096 329.993 28.783 329.966 28.7563L330.006 37.3963C330.006 39.423 330.26 40.903 330.766 41.8363C331.273 42.7696 332.353 43.2363 334.006 43.2363ZM366.875 29.5563C366.982 30.4096 367.035 31.3963 367.035 32.5163C367.035 33.6363 366.929 37.183 366.715 43.1563L370.075 43.4763C370.075 44.223 369.849 45.023 369.395 45.8763H360.195L360.075 44.4763C361.302 44.0496 362.502 43.7296 363.675 43.5163C363.515 36.423 363.369 32.4763 363.235 31.6763C363.129 30.8763 362.942 30.2096 362.675 29.6763C362.409 29.1163 361.995 28.7296 361.435 28.5163C360.875 28.303 360.022 28.1963 358.875 28.1963C357.755 28.1963 356.275 28.623 354.435 29.4763C354.275 35.5563 354.169 40.1163 354.115 43.1563L357.475 43.4763C357.475 44.223 357.249 45.023 356.795 45.8763H347.595L347.475 44.4763C348.702 44.0496 349.902 43.7296 351.075 43.5163C351.049 41.5963 350.982 38.8896 350.875 35.3963C350.769 31.8763 350.702 29.5696 350.675 28.4763C349.209 28.3963 348.035 28.2363 347.155 27.9963L347.315 25.9163C348.755 25.5163 350.849 25.3163 353.595 25.3163C353.969 25.983 354.209 26.6763 354.315 27.3963C355.489 26.783 356.649 26.2496 357.795 25.7963C358.942 25.3163 359.662 25.0763 359.955 25.0763C362.915 25.0763 364.982 25.983 366.155 27.7963C367.382 27.1296 368.649 26.5163 369.955 25.9563C371.289 25.3696 372.089 25.0763 372.355 25.0763C374.782 25.0763 376.595 25.6763 377.795 26.8763C379.022 28.0496 379.635 29.983 379.635 32.6763C379.635 33.4763 379.529 36.9696 379.315 43.1563L382.675 43.4763C382.675 44.223 382.449 45.023 381.995 45.8763H372.795L372.675 44.4763C373.902 44.0496 375.102 43.7296 376.275 43.5163C376.169 39.303 376.075 36.1163 375.995 33.9563C375.915 31.7963 375.609 30.303 375.075 29.4763C374.542 28.623 373.475 28.1963 371.875 28.1963C370.275 28.1963 368.609 28.6496 366.875 29.5563Z" fill="black"/>
<g clip-path="url(#clip0_7_10)">
<path d="M71.9294 18.8059V54H58.4879V18.8059H58.4294L58.8864 17.8854L64.4528 6.53663L65.0387 5.37145L65.6247 6.5075L71.484 17.8621L71.9762 18.8059H71.9294ZM2.34341 40.8801L2.41372 40.7811C2.64777 40.5698 2.89643 40.3752 3.15787 40.1985C3.69018 39.8637 4.26313 39.5974 4.86294 39.4062C5.37989 39.2286 5.90848 39.0866 6.44498 38.9809V2.37696C5.75369 2.44276 5.09052 2.68202 4.51764 3.07228C3.94475 3.46255 3.48091 3.99106 3.16958 4.60826C2.51333 5.8783 2.34341 7.57363 2.34341 9.32139C2.20279 16.4756 2.24966 23.6996 2.3024 30.8771C2.3024 34.3144 2.34341 37.7516 2.34927 40.8801H2.34341ZM34.4469 12.9509C34.4556 12.8132 34.4922 12.6788 34.5547 12.5556C34.6171 12.4324 34.7041 12.3231 34.8102 12.2343C35.0168 12.0597 35.2837 11.9719 35.5544 11.9896H35.6247C35.8857 12.0232 36.124 12.1547 36.2906 12.3572C36.4573 12.5598 36.5398 12.818 36.5212 13.0791C36.5243 13.0964 36.5243 13.1142 36.5212 13.1315L36.3278 15.3512C36.3307 15.3744 36.3307 15.3979 36.3278 15.4211C36.2935 15.6733 36.1661 15.9038 35.9704 16.0678C35.7638 16.2424 35.4968 16.3302 35.2262 16.3124H35.1559C34.8949 16.2775 34.6571 16.1446 34.4915 15.9409C34.3259 15.7372 34.245 15.4783 34.2653 15.2172C34.2624 15.1998 34.2624 15.1821 34.2653 15.1647L34.4411 12.9567L34.4469 12.9509ZM33.82 22.0975C34.1323 21.6406 34.6116 21.3229 35.1559 21.212C35.6458 21.1197 36.1527 21.1914 36.5973 21.4159C37.0286 21.6325 37.384 21.9737 37.6168 22.3946C37.6968 22.5357 37.7579 22.6865 37.7985 22.8432C38.0319 22.8498 38.2629 22.8911 38.484 22.9656C38.9789 23.1385 39.418 23.4403 39.7555 23.8395C40.1261 24.2669 40.3606 24.7941 40.4294 25.3542C40.4553 25.6167 40.4435 25.8815 40.3942 26.1407C40.6261 26.3542 40.8237 26.6017 40.9801 26.8747C41.2332 27.2905 41.3613 27.7696 41.3493 28.2555C41.3351 28.7665 41.1587 29.26 40.8454 29.6653C40.6264 29.9602 40.3589 30.2162 40.0544 30.4227C40.0778 31.0879 39.8869 31.7431 39.5094 32.2928C39.1523 32.829 38.6035 33.2101 37.9743 33.3589C37.7882 33.9459 37.3879 34.4423 36.8523 34.7507C36.3166 35.059 35.6843 35.1569 35.0797 35.0251C34.5851 34.8819 34.1653 34.5542 33.9079 34.1105C33.7556 34.352 33.5564 34.5608 33.322 34.7249C33.0876 34.889 32.8226 35.0049 32.5426 35.0659C32.2211 35.1267 31.8902 35.1175 31.5727 35.0391C31.2551 34.9606 30.9583 34.8148 30.7028 34.6115C30.2965 34.3116 30.0068 33.8816 29.8825 33.3939C29.6827 33.3819 29.4856 33.3427 29.2965 33.2774C28.8247 33.1062 28.405 32.8173 28.0778 32.4385C27.716 32.0274 27.4802 31.522 27.3981 30.982C27.3515 30.6945 27.3515 30.4014 27.3981 30.1139C27.1881 29.9214 27.0049 29.702 26.8532 29.4614V29.4148C26.6052 29.0052 26.4755 28.5355 26.4782 28.0574C26.4735 27.5246 26.6397 27.0042 26.9528 26.5718C27.1682 26.2851 27.4272 26.0336 27.7204 25.8261V25.5989C27.7388 24.9269 27.9798 24.2798 28.4059 23.7579C28.776 23.2969 29.2997 22.9828 29.8825 22.8724C29.9004 22.8034 29.922 22.7353 29.9469 22.6685C30.1437 22.1761 30.5033 21.7652 30.9665 21.5033C31.4387 21.2245 31.9973 21.1271 32.5368 21.2295C33.073 21.3448 33.5434 21.6622 33.8493 22.115L33.82 22.0975ZM37.7575 23.9443C37.6601 24.225 37.5088 24.4841 37.3122 24.7075C37.2656 24.7626 37.2086 24.808 37.1444 24.8412C37.0802 24.8744 37.01 24.8947 36.9379 24.9009C36.8658 24.9071 36.7932 24.8992 36.7242 24.8775C36.6552 24.8558 36.5912 24.8208 36.5358 24.7745C36.4804 24.7282 36.4347 24.6715 36.4013 24.6077C36.368 24.5439 36.3476 24.4741 36.3413 24.4024C36.3351 24.3307 36.3431 24.2585 36.3649 24.1899C36.3867 24.1213 36.4219 24.0577 36.4684 24.0026C36.6064 23.8617 36.696 23.6809 36.7244 23.4863C36.7528 23.2917 36.7186 23.0931 36.6266 22.919C36.5022 22.6951 36.3121 22.5142 36.0817 22.4005C35.8619 22.2872 35.6109 22.2483 35.3669 22.2898C34.9626 22.3772 34.57 22.75 34.3649 23.5773V32.4035C34.4628 32.4871 34.5272 32.6029 34.5465 32.7297C34.6754 33.4988 34.9977 33.8949 35.361 33.9648C35.5422 34.0032 35.7298 34.0012 35.9101 33.9588C36.0904 33.9165 36.2591 33.835 36.404 33.7201C36.548 33.6231 36.6685 33.4953 36.7566 33.3462C36.8448 33.197 36.8985 33.0302 36.9137 32.8579C36.9137 32.4792 36.6266 32.0481 35.8532 31.652C35.7357 31.5788 35.6499 31.4647 35.6125 31.3319C35.5752 31.1992 35.589 31.0573 35.6513 30.9342C35.7136 30.811 35.8199 30.7154 35.9493 30.6661C36.0788 30.6167 36.2221 30.6172 36.3512 30.6674C37.0549 30.9639 37.6142 31.5221 37.9098 32.2229C38.1818 32.0977 38.4102 31.8949 38.5661 31.6403C38.8504 31.2217 38.9693 30.7134 38.9001 30.213C38.8853 30.1054 38.9031 29.9959 38.9511 29.8984C38.9991 29.8009 39.0751 29.7198 39.1696 29.6653C39.4643 29.5024 39.7233 29.2825 39.9313 29.0187C40.1071 28.79 40.2092 28.5138 40.2243 28.2263C40.228 27.9446 40.1507 27.6678 40.0016 27.4282C39.8493 27.1826 39.6503 26.9689 39.4157 26.799C39.3139 26.732 39.2373 26.6333 39.1981 26.5184C39.1588 26.4034 39.1591 26.2788 39.1989 26.164C39.2777 25.9418 39.3038 25.7046 39.2751 25.4707C39.2358 25.1324 39.0949 24.8136 38.8708 24.556C38.6652 24.3047 38.3933 24.1151 38.0856 24.0084C37.9728 23.968 37.854 23.9463 37.734 23.9443H37.7575ZM36.5856 26.3795C36.4821 26.2878 36.4147 26.1625 36.3954 26.0259C36.3761 25.8894 36.4061 25.7504 36.4801 25.6338C36.5706 25.5197 36.7006 25.4433 36.8448 25.4196C36.989 25.3958 37.1369 25.4266 37.2594 25.5057C37.3532 25.5756 37.4411 25.6513 37.529 25.727C38.1175 26.2578 38.4818 26.9906 38.5485 27.7778C38.6059 28.5568 38.3837 29.3308 37.9215 29.9625C37.8512 30.0557 37.7751 30.1489 37.693 30.2421C37.6454 30.3003 37.5864 30.3482 37.5195 30.383C37.4527 30.4178 37.3795 30.4387 37.3042 30.4445C37.229 30.4503 37.1534 30.4408 37.082 30.4166C37.0106 30.3925 36.9449 30.3541 36.8888 30.3039C36.8328 30.2537 36.7875 30.1927 36.7559 30.1246C36.7243 30.0565 36.707 29.9827 36.7049 29.9077C36.7029 29.8328 36.7161 29.7582 36.744 29.6884C36.7718 29.6187 36.8136 29.5554 36.8669 29.5022C36.9208 29.4427 36.9717 29.3805 37.0192 29.3158C37.3283 28.8972 37.4778 28.3831 37.4411 27.8651C37.397 27.358 37.1628 26.886 36.7848 26.5427L36.609 26.4028L36.5856 26.3795ZM33.4508 32.4151V23.8861H33.3981C33.193 23.0588 32.8122 22.6801 32.3962 22.5927C32.1246 22.5464 31.8454 22.6003 31.611 22.7442C31.3706 22.871 31.1821 23.0769 31.0778 23.3268C31.0152 23.5288 31.0177 23.7453 31.0849 23.9459C31.1521 24.1464 31.2808 24.3211 31.4528 24.4454C31.5525 24.5484 31.6105 24.6843 31.6159 24.8272C31.6213 24.9701 31.5737 25.11 31.4821 25.2202C31.3744 25.3168 31.2345 25.3703 31.0895 25.3703C30.9445 25.3703 30.8046 25.3168 30.6969 25.2202C30.3055 24.9028 30.0213 24.4738 29.8825 23.9909C29.6257 24.082 29.4002 24.2436 29.2321 24.457C28.9664 24.7895 28.8144 25.1978 28.7985 25.6222C28.7872 25.754 28.7872 25.8865 28.7985 26.0183C28.8139 26.1239 28.7977 26.2315 28.7518 26.3279C28.7059 26.4243 28.6325 26.5051 28.5407 26.5601C28.2541 26.7299 28.0017 26.9511 27.7965 27.2126C27.6125 27.4524 27.5099 27.7442 27.5036 28.0457C27.5005 28.3211 27.5756 28.5917 27.7204 28.8264V28.8614C27.8587 29.0879 28.0397 29.2857 28.2536 29.444C28.3501 29.5155 28.4221 29.6148 28.4598 29.7284C28.4975 29.842 28.4992 29.9644 28.4645 30.079C28.3815 30.3164 28.3574 30.5702 28.3942 30.8189C28.4453 31.1474 28.5897 31.4546 28.8102 31.7044C29.0099 31.9387 29.2659 32.119 29.5544 32.2287C29.6402 32.2564 29.7285 32.2759 29.818 32.287C30.1239 31.556 30.707 30.9742 31.4411 30.6674C31.5056 30.6342 31.5762 30.6141 31.6486 30.6081C31.7211 30.6022 31.794 30.6105 31.8632 30.6327C31.9323 30.6549 31.9964 30.6905 32.0517 30.7375C32.107 30.7844 32.1523 30.8418 32.1852 30.9062C32.2433 31.038 32.2503 31.1865 32.2049 31.3231C32.1595 31.4597 32.0648 31.5748 31.9391 31.6461C31.1247 32.0598 30.8141 32.5258 30.8141 32.9336C30.8226 33.0915 30.8671 33.2455 30.9443 33.3837C31.0214 33.522 31.1292 33.641 31.2594 33.7318C31.3879 33.8369 31.5375 33.9136 31.6981 33.9568C31.8587 34 32.0268 34.0087 32.1911 33.9823C32.5954 33.9007 32.9879 33.5162 33.193 32.6831C33.2201 32.5767 33.2794 32.4811 33.3629 32.4093L33.4508 32.4151ZM30.0172 25.797C30.1221 25.695 30.2635 25.6386 30.4102 25.6402C30.5569 25.6419 30.6969 25.7014 30.7995 25.8057C30.902 25.91 30.9587 26.0505 30.9571 26.1964C30.9554 26.3422 30.8956 26.4815 30.7907 26.5835C30.4284 26.9403 30.2185 27.4224 30.2047 27.9292C30.1849 28.4581 30.36 28.976 30.6969 29.3857C30.7733 29.5005 30.804 29.6394 30.7829 29.7754C30.7619 29.9114 30.6906 30.0348 30.583 30.1214C30.4754 30.208 30.3393 30.2516 30.2011 30.2438C30.0629 30.2359 29.9326 30.1772 29.8356 30.079C29.3281 29.461 29.0656 28.6798 29.0973 27.8826C29.1268 27.0942 29.4604 26.3473 30.029 25.797H30.0172ZM26.5836 36.0155C26.1735 35.497 25.7809 34.9552 25.359 34.3726C24.916 33.7107 24.5411 33.0061 24.2399 32.2695C23.9254 31.4928 23.6899 30.6867 23.5368 29.8634C23.3904 29.0447 23.3413 28.2117 23.3903 27.3816C23.4517 26.5227 23.6149 25.674 23.8766 24.8532C24.1721 23.9644 24.5651 23.1106 25.0485 22.3073L25.1071 22.2199C25.7123 21.3163 26.4579 20.514 27.3161 19.8429C28.1708 19.1767 29.1312 18.6569 30.1579 18.3049H30.2106C30.9918 18.0399 31.8024 17.8698 32.6247 17.798C33.4862 17.7232 34.3536 17.7506 35.2087 17.8796C36.0439 18.0024 36.8632 18.2154 37.652 18.5146C38.4392 18.8193 39.1899 19.2101 39.8903 19.6798C40.8 20.2847 41.6103 21.0255 42.2926 21.8761C42.9555 22.7063 43.4726 23.6419 43.8219 24.6434C44.0235 25.2118 44.1745 25.7966 44.2731 26.3912C44.4985 27.7469 44.4466 29.1339 44.1208 30.4693C43.9357 31.1894 43.6806 31.8899 43.359 32.5608C42.5111 34.1257 41.487 35.5896 40.3063 36.9244C39.7204 37.6817 39.0817 38.4333 38.5895 39.1266C38.5155 39.2308 38.4116 39.3104 38.2914 39.3551C38.1713 39.3998 38.0403 39.4074 37.9157 39.3771L29.0036 40.1985C28.855 40.2105 28.7069 40.1705 28.585 40.0854C28.463 40.0003 28.3748 39.8754 28.3356 39.7324C28.1291 39.0144 27.8625 38.3148 27.5387 37.641C27.2722 37.0658 26.9441 36.5208 26.5602 36.0155H26.5836ZM26.4254 33.6852C26.7887 34.2678 27.193 34.7513 27.5973 35.2523C28.0337 35.8287 28.4069 36.4498 28.7106 37.105C28.9787 37.6848 29.2116 38.2801 29.4079 38.8877L37.7458 38.1187C38.2321 37.4487 38.7653 36.7962 39.3044 36.1321C40.415 34.8794 41.3819 33.5077 42.1872 32.0423C42.4732 31.4431 42.6971 30.8165 42.8551 30.1722C43.0096 29.5581 43.0961 28.929 43.1129 28.2963C43.1279 27.7268 43.0886 27.1572 42.9958 26.5951C42.9078 26.0706 42.7765 25.5543 42.6032 25.0512C42.3021 24.1851 41.8564 23.3757 41.2848 22.6568C40.6847 21.9087 39.9711 21.2582 39.1696 20.7285C38.5486 20.3197 37.8845 19.9798 37.1891 19.7147C36.486 19.4425 35.7551 19.2471 35.0094 19.1322C34.2529 19.0217 33.4862 18.9983 32.7243 19.0623C32.0063 19.1251 31.2984 19.2718 30.6149 19.4992H30.5622C29.6687 19.8005 28.8327 20.2496 28.0895 20.8275C27.3357 21.4182 26.6811 22.1241 26.1501 22.919C25.7127 23.6373 25.3608 24.4037 25.1012 25.2027C24.8711 25.925 24.7295 26.6722 24.6794 27.4282C24.6344 28.157 24.6777 28.8885 24.8083 29.6071C24.9433 30.343 25.1534 31.0633 25.4352 31.7568C25.7044 32.4161 26.0401 33.0466 26.4372 33.6386L26.4254 33.6852ZM37.7223 45.0981C37.2264 45.8421 36.5438 46.4446 35.7419 46.8458C35.0693 47.2028 34.3187 47.3896 33.5563 47.3896C32.7939 47.3896 32.0433 47.2028 31.3708 46.8458C30.8905 46.5774 30.4635 46.224 30.111 45.803L37.7282 45.0922L37.7223 45.0981ZM38.6715 40.9384V41.4336V41.6025C38.6813 41.9255 38.6676 42.2487 38.6305 42.5696L38.443 43.2687L29.2086 44.1251L29.068 43.7523L28.7926 42.2783V41.8589L38.6715 40.9384ZM22.2653 16.6969C22.1224 16.5501 22.0267 16.3643 21.9902 16.1632C21.9537 15.9621 21.9782 15.7547 22.0604 15.5675C22.1426 15.3802 22.279 15.2215 22.4521 15.1114C22.6253 15.0013 22.8274 14.9448 23.0329 14.9492C23.169 14.9507 23.3034 14.9794 23.4282 15.0334C23.5529 15.0875 23.6656 15.1658 23.7594 15.2638L25.359 16.895C25.5008 17.0409 25.5961 17.225 25.6332 17.4245C25.6702 17.6239 25.6472 17.8298 25.5672 18.0163C25.4871 18.2028 25.3535 18.3618 25.1831 18.4732C25.0127 18.5846 24.813 18.6436 24.609 18.6428C24.3347 18.6371 24.0736 18.524 23.8825 18.3282L22.2653 16.6969ZM18.943 27.9117C18.6722 27.9003 18.4162 27.7855 18.2282 27.5913C18.0377 27.3923 17.9344 27.1262 17.9411 26.8514C17.9437 26.7158 17.9736 26.582 18.0289 26.4579C18.0843 26.3339 18.164 26.2221 18.2633 26.129C18.4635 25.9396 18.7312 25.8369 19.0075 25.8436L21.2809 25.8902C21.4174 25.8928 21.5519 25.9225 21.6767 25.9775C21.8015 26.0326 21.9139 26.1118 22.0075 26.2106C22.1969 26.4103 22.3 26.676 22.2946 26.9505V26.9854C22.2796 27.2409 22.1663 27.4808 21.9782 27.6554C21.8794 27.7497 21.7628 27.8236 21.635 27.8726C21.5072 27.9216 21.3709 27.9448 21.234 27.9409H21.193L18.9489 27.8943L18.943 27.9117ZM48.7555 26.2747H48.7907C49.051 26.2709 49.3027 26.3669 49.4938 26.5427C49.6971 26.7256 49.8193 26.9812 49.8337 27.2534V27.3C49.8345 27.5583 49.7384 27.8076 49.5641 27.9991C49.4732 28.1009 49.3624 28.1834 49.2386 28.2414C49.1147 28.2995 48.9803 28.332 48.8434 28.337L46.5758 28.4536C46.3001 28.4658 46.0306 28.3695 45.8258 28.1856C45.7234 28.0951 45.6405 27.985 45.5821 27.8619C45.5237 27.7387 45.491 27.6051 45.486 27.469C45.4752 27.1968 45.5719 26.9313 45.7555 26.7291C45.8465 26.6273 45.9572 26.5449 46.0811 26.4868C46.205 26.4287 46.3394 26.3962 46.4762 26.3912C47.2321 26.3504 47.9938 26.3038 48.7555 26.2747ZM44.777 17.0465C44.9444 16.8291 45.1902 16.6849 45.4626 16.6445C45.7346 16.6081 46.0102 16.6792 46.2301 16.8426C46.3385 16.9245 46.4295 17.0268 46.4979 17.1438C46.5663 17.2608 46.6107 17.3901 46.6286 17.5242C46.6491 17.6578 46.6426 17.7942 46.6094 17.9252C46.5762 18.0563 46.517 18.1794 46.4352 18.2874L45.07 20.0993C44.9881 20.2076 44.8855 20.2988 44.7681 20.3677C44.6508 20.4365 44.5209 20.4817 44.3859 20.5007C44.251 20.5196 44.1136 20.5119 43.9816 20.478C43.8497 20.4441 43.7257 20.3847 43.6169 20.3032C43.5072 20.2221 43.4149 20.12 43.3455 20.0029C43.276 19.8859 43.2309 19.7562 43.2126 19.6215C43.1918 19.4875 43.1987 19.3507 43.233 19.2195C43.2672 19.0883 43.3281 18.9654 43.4118 18.8583L44.777 17.0465ZM8.75357 40.0004C8.74117 40.2502 8.64411 40.4884 8.47818 40.6762C8.2981 40.8815 8.05139 41.0175 7.78091 41.0607C7.16326 41.1517 6.55249 41.2841 5.95279 41.4569C5.42014 41.61 4.91283 41.8396 4.44693 42.1385C3.99624 42.432 3.59981 42.8006 3.27505 43.228C2.88216 43.7671 2.56114 44.3546 2.31997 44.9757C2.27619 45.8098 2.34118 46.6459 2.51333 47.4634C2.65471 48.1705 2.93767 48.8421 3.34537 49.4383C3.77111 50.0194 4.32151 50.499 4.95669 50.8424C5.76072 51.2574 6.62765 51.5388 7.5231 51.6755H54.0758V53.9709H7.46451C6.30796 53.9169 5.18106 53.5894 4.1774 53.0154C3.1131 52.4676 2.18449 51.6915 1.45865 50.7433C0.886907 49.9097 0.488481 48.9708 0.286771 47.9819C0.0428306 46.9084 -0.0537504 45.807 -0.000337922 44.7077V15.4619C-0.000337922 14.5938 -0.000337922 13.9821 -0.000337922 13.3995C-0.000337922 11.7217 -0.000337921 10.0205 0.0348183 8.39508C0.122709 6.25116 0.433256 4.20628 1.50552 2.66242C2.57779 1.11857 4.41763 0.0582587 7.48794 0H7.61685C7.92142 0.00125166 8.21354 0.120355 8.4313 0.332075C8.5438 0.440185 8.63337 0.569598 8.69476 0.71268C8.75615 0.855763 8.7881 1.00962 8.78873 1.16517V6.40846H59.5895L58.4704 8.73881H8.78873V39.9305V40.0004H8.75357ZM60.5153 17.5067H69.8903L66.152 10.3759H64.0016L60.486 17.5067H60.5153Z" fill="black"/>
</g>
<defs>
<clipPath id="clip0_7_10">
<rect width="72" height="54" fill="black"/>
</clipPath>
</defs>
</svg>
